<svg width="32" height="32" viewBox="0 0 32 32" fill="none" xmlns="http://www.w3.org/2000/svg">
<path d="M17.84 30.6666H14.1733C13.16 30.6666 12.3333 29.84 12.3333 28.84V28.0933C12.3333 27.84 12.1733 27.6 11.9333 27.52C11.52 27.3733 11.12 27.2 10.7333 27.0267C10.4933 26.92 10.2267 26.96 10.04 27.1467L9.52 27.6667C8.82667 28.36 7.62667 28.36 6.93334 27.6667L4.34667 25.08C3.62667 24.36 3.62667 23.2 4.34667 22.4933L4.86667 21.9733C5.04 21.8 5.09334 21.5067 4.98667 21.28C4.8 20.88 4.64 20.48 4.49334 20.0933C4.41334 19.8533 4.17334 19.68 3.92 19.68H3.17334C2.16 19.68 1.33334 18.8533 1.33334 17.8533V14.1867C1.33334 13.1733 2.16 12.3467 3.17334 12.3467H3.92C4.17334 12.3467 4.41334 12.1867 4.49334 11.9333C4.64 11.5333 4.8 11.12 4.98667 10.7467C5.09334 10.5067 5.05334 10.24 4.86667 10.0533L4.34667 9.53332C4 9.18665 3.81334 8.73332 3.81334 8.23998C3.81334 7.74665 4 7.29332 4.34667 6.94665L6.93334 4.35999C7.6 3.70665 8.86667 3.70665 9.52 4.35999L10.04 4.87999C10.2267 5.05332 10.5067 5.10665 10.7333 4.99999C11.12 4.81332 11.52 4.65332 11.92 4.50665C12.16 4.42665 12.3333 4.18665 12.3333 3.93332V3.18665C12.3333 2.17332 13.16 1.35999 14.1733 1.35999H17.84C18.8533 1.35999 19.68 2.18665 19.68 3.18665V3.93332C19.68 4.18665 19.84 4.42665 20.08 4.50665C20.4933 4.65332 20.8933 4.82665 21.28 4.99999C21.52 5.10665 21.7867 5.06665 21.9733 4.87999L22.4933 4.35999C23.1467 3.70665 24.4267 3.70665 25.08 4.35999L27.6667 6.94665C28.3867 7.66665 28.3867 8.82665 27.6667 9.53332L27.1467 10.0533C26.9733 10.24 26.92 10.52 27.0267 10.7467C27.2133 11.1333 27.3733 11.5333 27.52 11.9333C27.5867 12.12 27.7867 12.3467 28.0933 12.3467H28.84C29.8533 12.3467 30.68 13.1733 30.68 14.1733V17.84C30.68 18.8533 29.8533 19.6667 28.84 19.6667H28.0933C27.84 19.6667 27.6 19.8267 27.52 20.08C27.3733 20.48 27.2133 20.8933 27.0267 21.2666C26.92 21.5066 26.96 21.7733 27.1467 21.96L27.6667 22.48C28.0133 22.8266 28.2 23.28 28.2 23.7733C28.2 24.2666 28.0133 24.72 27.6667 25.0666L25.08 27.6533C24.4133 28.32 23.1467 28.3067 22.4933 27.6533L21.9733 27.1333C21.7867 26.96 21.5067 26.9067 21.28 27.0133C20.8933 27.2 20.4933 27.36 20.0933 27.5066C19.8533 27.5866 19.68 27.8266 19.68 28.08V28.8267C19.68 29.84 18.8533 30.6533 17.84 30.6533V30.6666ZM14.3333 28.6666H17.6667V28.0933C17.6667 26.9866 18.3733 26 19.4133 25.6266C19.7467 25.5066 20.08 25.3733 20.4 25.2133C21.3733 24.7467 22.56 24.9467 23.3467 25.6933L23.7733 26.12L26.1333 23.7733L25.72 23.3733C24.9467 22.6 24.7333 21.4133 25.2133 20.4133C25.3733 20.0933 25.5067 19.76 25.6267 19.4133C25.9867 18.36 26.9867 17.6667 28.0933 17.6667H28.6667V14.3333H28.0933C27.0133 14.3333 26.0267 13.6533 25.6533 12.6267C25.52 12.24 25.3867 11.9067 25.2267 11.6C24.76 10.6133 24.96 9.43998 25.7067 8.65332L26.1333 8.22665L23.7867 5.87999L23.3733 6.29332C22.6 7.06665 21.4 7.26665 20.4133 6.79998C20.0933 6.63999 19.7467 6.50665 19.4 6.37332C18.3733 6.01332 17.6667 5.01332 17.6667 3.91999V3.34665H14.3333V3.91999C14.3333 5.02665 13.6267 6.01332 12.5867 6.38665C12.2533 6.50665 11.92 6.63999 11.6 6.79998C10.6267 7.26665 9.44 7.06665 8.65334 6.31998L8.22667 5.89332L5.86667 8.23998L6.28 8.63999C7.05334 9.41332 7.26667 10.6 6.78667 11.6C6.62667 11.92 6.49334 12.2533 6.37334 12.6C6.01334 13.6533 5.01334 14.3467 3.90667 14.3467H3.33334V17.68H3.90667C5.01334 17.68 6 18.3867 6.37334 19.4266C6.49334 19.76 6.62667 20.0933 6.78667 20.4266C7.25334 21.4266 7.05334 22.6133 6.28 23.3867L5.88 23.7866L8.22667 26.1467L8.64 25.7333C9.41334 24.96 10.6 24.7467 11.6 25.2267C11.92 25.3867 12.2667 25.52 12.6133 25.6533C13.64 26.0133 14.3467 27.0133 14.3467 28.1066V28.68L14.3333 28.6666ZM16 24.1066C11.5333 24.1066 7.89334 20.4667 7.89334 16C7.89334 11.5333 11.5333 7.89332 16 7.89332C20.4667 7.89332 24.1067 11.5333 24.1067 16C24.1067 20.4667 20.4667 24.1066 16 24.1066ZM16 9.89332C12.6267 9.89332 9.89334 12.64 9.89334 16C9.89334 19.36 12.64 22.1066 16 22.1066C19.36 22.1066 22.1067 19.36 22.1067 16C22.1067 12.64 19.36 9.89332 16 9.89332Z" fill="#4D4D4D"/>
</svg>
